<svg xmlns="http://www.w3.org/2000/svg" width="512" height="512" viewBox="0 0 512 512" version="1.1"><path d="M 263 17.664 C 270.717 22.200, 280.284 30.542, 285.935 37.663 C 297.929 52.776, 302.881 56.792, 314.021 60.441 L 320.662 62.616 318.900 57.980 C 312.800 41.925, 298.309 26.914, 282.500 20.273 C 275.937 17.516, 266.060 14.998, 261.856 15.009 L 258.500 15.019 263 17.664 M 207.437 35.250 L 204.500 38.500 207.750 35.563 C 210.779 32.825, 211.460 32, 210.687 32 C 210.515 32, 209.052 33.462, 207.437 35.250 M 370.500 65.850 C 390.629 78.704, 402.882 98.600, 405.508 122.696 C 406.398 130.861, 404.392 145.865, 401.322 154 C 399.973 157.575, 398.628 161.258, 398.335 162.185 C 397.933 163.454, 399.248 164.605, 403.650 166.839 C 423.976 177.154, 440.333 198.024, 446.100 221 C 449.041 232.721, 449.045 250.296, 446.109 261.500 C 440.433 283.152, 424.954 303.491, 406.201 313.935 L 400.500 317.110 406.337 316.472 C 429.347 313.958, 452.541 296.990, 463.490 274.662 C 476.069 249.008, 472.793 216.801, 455.300 194.159 C 449.222 186.292, 438.930 177.757, 429.695 172.925 C 419.397 167.537, 418.861 166.168, 422.975 155.757 C 426.762 146.172, 428.045 139.748, 428.105 130.054 C 428.156 121.952, 429.749 117.532, 432.989 116.503 C 435.464 115.718, 435.464 115.713, 432.960 107.605 C 430.971 101.166, 430.835 101, 427.531 101 C 423.641 101, 421.999 99.601, 417.338 92.314 C 411.227 82.762, 401.594 74.347, 390.154 68.569 C 384.490 65.708, 371.428 61.994, 367.090 62.010 C 364.891 62.018, 365.406 62.598, 370.500 65.850 M 102.946 81.750 L 99.500 85.500 103.250 82.054 C 106.740 78.846, 107.460 78, 106.696 78 C 106.529 78, 104.842 79.688, 102.946 81.750 M 62.453 187.250 L 58.500 191.500 62.750 187.547 C 66.702 183.871, 67.460 183, 66.703 183 C 66.540 183, 64.627 184.912, 62.453 187.250 M 301 292.500 C 298.571 294.975, 296.809 297, 297.084 297 C 297.359 297, 299.571 294.975, 302 292.500 C 304.429 290.025, 306.191 288, 305.916 288 C 305.641 288, 303.429 290.025, 301 292.500 M 63 295.500 C 64.866 297.425, 66.617 299, 66.892 299 C 67.167 299, 65.866 297.425, 64 295.500 C 62.134 293.575, 60.383 292, 60.108 292 C 59.833 292, 61.134 293.575, 63 295.500 M 391.206 320.018 C 388.268 321.599, 384.139 322.550, 371.822 324.486 C 368.768 324.966, 368.036 325.558, 367.504 327.983 C 366.045 334.626, 355.142 347.930, 346.534 353.570 C 344.930 354.621, 341.341 355.794, 338.559 356.178 C 335.490 356.601, 336.976 356.680, 342.336 356.379 C 363.906 355.166, 380.948 345.160, 388.677 329.172 C 390.716 324.952, 393.043 320.712, 393.848 319.750 C 395.562 317.699, 395.505 317.704, 391.206 320.018 M 130.500 340 C 132.648 342.200, 134.631 344, 134.906 344 C 135.181 344, 133.648 342.200, 131.500 340 C 129.352 337.800, 127.369 336, 127.094 336 C 126.819 336, 128.352 337.800, 130.500 340 M 196.444 342.909 C 197.181 344.102, 192.480 347.998, 185.283 352.158 C 181.292 354.464, 177.640 355.699, 173.500 356.142 C 168.565 356.670, 168.948 356.724, 175.660 356.447 C 183.213 356.135, 198.026 352.308, 200.303 350.080 C 201.033 349.365, 197.423 342, 196.342 342 C 196.089 342, 196.135 342.409, 196.444 342.909" stroke="none" fill="#097c09" fill-rule="evenodd"/><path d="M 231.357 67.408 C 218.156 70.013, 202.531 81.123, 197.122 91.750 C 195.933 94.088, 194.757 96, 194.510 96 C 194.262 96, 191.364 94.630, 188.070 92.956 C 177.154 87.409, 164.661 85.813, 153.240 88.506 C 134.683 92.881, 119.015 108.013, 114.418 125.999 C 112.009 135.422, 112.852 149.383, 116.342 157.876 C 117.783 161.383, 118.751 164.594, 118.492 165.013 C 118.234 165.431, 116.373 166.083, 114.356 166.461 C 107.316 167.782, 97.917 173.098, 91.512 179.382 C 81.368 189.334, 76 202.180, 76 216.500 C 76 230.453, 80.997 242.615, 90.782 252.479 C 104.281 266.086, 123.563 271.391, 137.375 265.298 C 162.061 254.409, 208.582 217.642, 249.001 177.078 C 270.860 155.141, 280.204 144.276, 287.652 132.135 C 293.178 123.129, 294.023 119.707, 292.926 110.782 C 290.407 90.283, 273.140 71.892, 252.257 67.467 C 244.284 65.777, 239.689 65.764, 231.357 67.408" stroke="none" fill="#28a528" fill-rule="evenodd"/><path d="M 266.676 319.750 C 261.323 353.163, 256.956 382.303, 256.971 384.506 C 257.009 389.794, 259.613 412.062, 261.589 424 C 264.701 442.801, 270.319 461.366, 277.173 475.500 C 280.826 483.031, 287.867 494.795, 289.265 495.700 C 289.944 496.140, 270.925 496.760, 247 497.078 L 203.500 497.656 255.718 497.526 C 284.438 497.455, 308.208 497.125, 308.541 496.793 C 308.873 496.461, 308.034 494.429, 306.676 492.279 C 302.969 486.407, 296.302 472.849, 293.640 465.770 C 282.656 436.560, 275.868 386.444, 280.492 368.693 C 282.600 360.599, 285.093 356.054, 301.954 329.573 C 320.265 300.812, 320.615 300.173, 318.485 299.356 C 317.373 298.929, 312.768 302.815, 303.056 312.374 C 293.815 321.469, 288.429 326.050, 286.856 326.151 C 280.729 326.543, 278.405 325.805, 275.250 322.468 C 271.117 318.095, 271.118 317.936, 275.482 286.125 C 278.760 262.234, 278.959 259, 277.145 259 C 276.740 259, 272.029 286.337, 266.676 319.750" stroke="none" fill="#9a4d01" fill-rule="evenodd"/><path d="M 268.447 260.279 C 268.177 260.982, 265.055 277.969, 261.509 298.029 L 255.062 334.500 251.546 337.750 C 248.716 340.366, 247.192 341, 243.737 341 C 241.376 341, 238.451 340.304, 237.236 339.452 C 236.020 338.601, 226.172 327.014, 215.350 313.702 C 204.529 300.391, 195.209 289.194, 194.640 288.819 C 193.590 288.128, 187.245 290.361, 185.603 292 C 185.073 292.528, 193.576 307.799, 206.331 329.227 C 218.225 349.210, 228.909 368.246, 230.074 371.530 C 233.312 380.660, 233.616 392.711, 231.056 410.500 C 228.714 426.773, 227.421 429.869, 222.321 431.414 C 219.626 432.231, 219.140 433.018, 217.753 438.813 L 216.201 445.299 219.101 447.738 C 220.991 449.329, 222 451.124, 222 452.897 C 222 458.244, 212.122 482.143, 205.529 492.750 L 202.887 497 246.598 497 C 288.154 497, 290.233 496.914, 288.755 495.250 C 281.575 487.169, 270.161 461.513, 265.568 443.131 C 261.658 427.481, 256.990 395.249, 257.006 384.006 C 257.010 381.528, 261.285 352.996, 266.506 320.603 C 271.728 288.209, 276 261.097, 276 260.353 C 276 258.586, 269.122 258.519, 268.447 260.279" stroke="none" fill="#bf6101" fill-rule="evenodd"/><path d="" stroke="none" fill="#000000" fill-rule="evenodd"/><path d="M 237.500 1.927 C 213.010 8.154, 192.778 24.097, 182.328 45.403 C 179.813 50.531, 179.239 51.094, 177.004 50.613 C 175.627 50.317, 171.350 49.391, 167.500 48.555 C 153.825 45.585, 135.773 46.970, 122.131 52.036 C 97.151 61.313, 77.308 83.829, 71.047 110 C 67.461 124.993, 68.219 139.406, 73.556 157.666 C 74.095 159.511, 73.099 160.551, 66.850 164.666 C 41.295 181.496, 25.985 209.854, 26.008 240.315 C 26.017 252.515, 27.279 260.974, 30.442 270.027 C 41.922 302.884, 69.735 326.273, 103.519 331.478 C 107.158 332.039, 107.808 332.615, 110.404 337.573 C 111.981 340.585, 116.079 346.076, 119.510 349.775 C 138.331 370.063, 170.679 377.047, 198.500 366.831 C 202.900 365.215, 207.122 363.804, 207.881 363.696 C 210.179 363.370, 216.180 376.600, 217.318 384.500 C 218.160 390.349, 217.963 394.006, 216.153 406.023 C 213.486 423.736, 213.439 427.182, 215.829 429.345 C 217.877 431.198, 222.179 431.510, 224.986 430.008 C 227.529 428.646, 228.497 424.967, 231.028 407.039 C 234.992 378.963, 234.272 376.716, 206.495 330.355 C 194.680 310.635, 185.010 293.761, 185.006 292.859 C 185.001 291.397, 191.279 288, 193.984 288 C 194.503 288, 203.073 298.012, 213.028 310.250 C 235.483 337.853, 237.149 339.618, 241.529 340.439 C 245.997 341.278, 251.577 338.719, 253.534 334.935 C 254.329 333.398, 257.690 316.696, 261.003 297.820 C 264.317 278.944, 267.255 262.488, 267.533 261.250 C 267.973 259.290, 268.672 259, 272.960 259 C 275.667 259, 278.125 259.394, 278.423 259.875 C 278.720 260.357, 277.397 272.169, 275.482 286.125 C 271.118 317.936, 271.117 318.095, 275.250 322.468 C 278.405 325.805, 280.729 326.543, 286.856 326.151 C 288.429 326.050, 293.815 321.469, 303.056 312.374 C 312.768 302.815, 317.373 298.929, 318.485 299.356 C 320.615 300.173, 320.265 300.812, 301.954 329.573 C 285.093 356.054, 282.600 360.599, 280.492 368.693 C 275.868 386.444, 282.656 436.560, 293.640 465.770 C 296.302 472.849, 302.969 486.407, 306.676 492.279 C 308.034 494.429, 308.873 496.461, 308.541 496.793 C 308.208 497.125, 284.326 497.590, 255.468 497.825 C 213.083 498.172, 203 498.006, 203 496.965 C 203 496.255, 204.334 493.596, 205.964 491.056 C 213.599 479.158, 222.665 454.879, 221.055 450.643 C 219.197 445.757, 212.763 444.447, 209.300 448.250 C 208.174 449.488, 206.230 453.650, 204.981 457.500 C 200.913 470.037, 192.980 484.904, 184.347 496.174 C 179.449 502.567, 178.741 506.741, 182 510 C 183.963 511.963, 185.333 512, 256 512 C 326.667 512, 328.037 511.963, 330 510 C 333.366 506.634, 332.555 502.652, 327.039 495.454 C 308.728 471.565, 299.442 443.699, 294.489 397.781 C 292.819 382.305, 293.328 374.936, 296.609 367.084 C 299.090 361.147, 299.708 360.810, 304.052 363.026 C 333.764 378.184, 371.360 372.551, 392.490 349.775 C 395.921 346.076, 400.019 340.585, 401.596 337.573 C 404.192 332.615, 404.842 332.039, 408.481 331.478 C 446.928 325.555, 478.860 294.410, 484.946 256.901 C 490.841 220.572, 475.282 184.510, 445.150 164.666 C 438.901 160.551, 437.905 159.511, 438.444 157.666 C 442.102 145.151, 443 139.800, 443 130.529 C 443 121.695, 442.735 120.093, 440.961 118.189 C 438.945 116.024, 435.683 115.417, 432.545 116.621 C 429.676 117.722, 428.153 122.328, 428.105 130.054 C 428.045 139.748, 426.762 146.172, 422.975 155.757 C 418.861 166.168, 419.397 167.537, 429.695 172.925 C 438.930 177.757, 449.222 186.292, 455.300 194.159 C 480.819 227.190, 474.630 276.333, 441.814 301.241 C 429.742 310.404, 418.678 314.957, 403.587 316.970 C 399.235 317.550, 395.093 318.508, 394.381 319.098 C 393.670 319.689, 391.281 323.905, 389.073 328.467 C 384.665 337.573, 378.893 343.646, 369.677 348.873 C 358.644 355.129, 342.960 357.996, 330.500 356.033 C 322.759 354.813, 310.765 350.627, 309.034 348.541 C 308.173 347.504, 310.552 343.057, 319.551 328.877 C 333.840 306.362, 334 306.053, 334 301.010 C 334 292.812, 327.847 285.661, 319.649 284.331 C 313.246 283.291, 309.168 285.620, 297.733 296.847 C 288.278 306.130, 287.033 307.057, 287.509 304.459 C 288.981 296.430, 293 264.302, 293 260.561 C 293 251.858, 286.059 245.611, 275.173 244.517 C 264.538 243.449, 257.553 247.139, 254.570 255.401 C 253.757 257.655, 250.807 272.775, 248.017 289 C 245.226 305.225, 242.597 319.347, 242.173 320.382 C 241.539 321.932, 238.441 318.618, 224.632 301.618 C 205.354 277.886, 203.026 275.504, 197.816 274.181 C 191.399 272.552, 179.419 276.620, 174.345 282.151 C 170.922 285.882, 169.447 292.211, 170.883 297.004 C 171.543 299.206, 178.612 311.873, 186.592 325.153 C 194.572 338.433, 200.741 349.651, 200.301 350.082 C 198.612 351.735, 184.157 355.928, 177.975 356.558 C 153.984 359.005, 128.899 345.333, 121.537 325.799 C 119.026 319.136, 117.486 318.130, 107.965 316.936 C 55.161 310.315, 25.189 254.134, 49.049 206.500 C 56.504 191.617, 67.842 180.331, 83.668 172.040 C 91.991 167.680, 92.975 165.286, 89.695 157.380 C 84.379 144.570, 82.679 133.830, 84.043 121.669 C 86.909 96.115, 103.481 75.184, 128.392 65.655 C 136.122 62.699, 137.176 62.555, 151 62.569 C 164.450 62.582, 166.043 62.788, 173 65.405 C 186.650 70.541, 188.744 69.905, 192.446 59.500 C 201.827 33.132, 227.323 15.015, 255.165 14.931 C 283.982 14.844, 309.511 32.438, 319.389 59.192 C 320.342 61.773, 322.059 65.077, 323.206 66.535 C 325.703 69.709, 327.819 69.570, 339 65.491 C 348.931 61.868, 364.312 60.979, 375.187 63.398 C 392.233 67.190, 408.331 78.234, 417.338 92.314 C 421.970 99.555, 423.646 101, 427.416 101 C 434.948 101, 436.183 94.348, 430.398 84.947 C 422.549 72.192, 405.571 57.976, 392.222 52.982 C 376.724 47.183, 358.770 45.459, 345 48.446 C 340.875 49.341, 336.373 50.316, 334.996 50.613 C 332.761 51.094, 332.187 50.532, 329.672 45.403 C 319.073 23.793, 297.691 7.241, 273 1.532 C 264.052 -0.536, 246.417 -0.340, 237.500 1.927" stroke="none" fill="#14151b" fill-rule="evenodd"/><path d="M 244.152 16.123 C 221.657 19.862, 201.109 37.345, 192.842 59.779 C 188.888 70.510, 187.450 71.021, 174.180 66.418 C 167.736 64.183, 161.403 62.739, 156.344 62.354 C 125.786 60.022, 96.965 79.253, 87.302 108.422 C 84.960 115.493, 84.623 118.120, 84.604 129.500 C 84.584 141.261, 84.846 143.215, 87.350 150 C 91.993 162.577, 92.550 164.902, 91.374 166.793 C 90.193 168.691, 87.065 170.834, 78.011 175.946 C 51.494 190.917, 36.315 224.654, 42.435 255.020 C 45.772 271.580, 51.694 282.673, 63.574 294.619 C 75.994 307.108, 92.230 315.011, 108.696 316.583 C 117.256 317.400, 119.213 318.636, 121.485 324.662 C 128.435 343.096, 148.816 356, 170.981 356 C 178.109 356, 178.970 355.749, 186.021 351.616 C 198.765 344.145, 198.966 346.776, 183.719 321.455 L 170.500 299.500 170.500 293 C 170.500 287.734, 170.957 285.859, 172.908 283.123 C 175.716 279.187, 185.985 273.981, 192.361 273.263 C 201.125 272.275, 202.611 273.607, 228.500 305.674 C 235.650 314.530, 241.574 321.714, 241.664 321.638 C 241.755 321.562, 244.392 306.875, 247.525 289 C 253.804 253.178, 254.817 250.083, 261.503 246.297 C 269.633 241.692, 284.648 243.923, 289.825 250.505 C 294.118 255.963, 294.227 258.966, 290.998 283.014 C 289.350 295.291, 288.168 305.502, 288.372 305.705 C 288.576 305.909, 292.257 302.205, 296.552 297.474 C 305.904 287.173, 310.811 284, 317.388 284 C 325.403 284, 331.865 289.071, 334.012 297.045 C 335.667 303.189, 334.131 306.740, 320.627 328 L 308.241 347.500 311.781 349.684 C 316.770 352.762, 329.535 356, 336.679 356 C 341.518 356, 343.495 355.483, 346.610 353.404 C 355.623 347.390, 366.020 334.739, 367.504 327.983 C 368.036 325.558, 368.768 324.966, 371.822 324.486 C 384.633 322.473, 388.685 321.477, 392.652 319.368 C 395.102 318.066, 397.807 317, 398.663 317 C 401.379 317, 411.623 310.990, 418.315 305.470 C 431.080 294.941, 441.780 278.013, 446.109 261.500 C 449.045 250.296, 449.041 232.721, 446.100 221 C 440.333 198.024, 423.976 177.154, 403.650 166.839 C 399.248 164.605, 397.933 163.454, 398.335 162.185 C 398.628 161.258, 399.973 157.575, 401.322 154 C 404.392 145.865, 406.398 130.861, 405.508 122.696 C 402.855 98.355, 389.933 77.675, 369.639 65.296 C 363.867 61.775, 363.658 61.730, 355.795 62.336 C 350.606 62.736, 344.315 64.165, 337.820 66.418 C 326.593 70.313, 324.146 70.117, 321.561 65.118 C 320.353 62.782, 318.798 61.795, 314.263 60.486 C 303.780 57.461, 299.031 53.736, 287.503 39.500 C 280.090 30.344, 271.178 22.427, 262.912 17.651 C 257.987 14.805, 254.022 14.482, 244.152 16.123 M 231.357 67.408 C 218.156 70.013, 202.531 81.123, 197.122 91.750 C 195.933 94.088, 194.757 96, 194.510 96 C 194.262 96, 191.364 94.630, 188.070 92.956 C 177.154 87.409, 164.661 85.813, 153.240 88.506 C 134.683 92.881, 119.015 108.013, 114.418 125.999 C 112.009 135.422, 112.852 149.383, 116.342 157.876 C 117.783 161.383, 118.751 164.594, 118.492 165.013 C 118.234 165.431, 116.373 166.083, 114.356 166.461 C 107.316 167.782, 97.917 173.098, 91.512 179.382 C 81.368 189.334, 76 202.180, 76 216.500 C 76 230.453, 80.997 242.615, 90.782 252.479 C 104.281 266.086, 123.563 271.391, 137.375 265.298 C 162.061 254.409, 208.582 217.642, 249.001 177.078 C 270.860 155.141, 280.204 144.276, 287.652 132.135 C 293.178 123.129, 294.023 119.707, 292.926 110.782 C 290.407 90.283, 273.140 71.892, 252.257 67.467 C 244.284 65.777, 239.689 65.764, 231.357 67.408" stroke="none" fill="#199b19" fill-rule="evenodd"/></svg>